{"title":"Deep.Dark.Canyon.2013.DVDRip.XviD-IGUANA","uid":8405562,"size":731034270,"categoryP":"video","categoryS":"movies","magnet":"?xt=urn:btih:7728ba525a6d4bcbe80072114a16a27660860360&amp;dn=Deep.Dark.Canyon.2013.DVDRip.XviD-IGUANA&amp;tr=udp%3A%2F%2Ftracker.openbittorrent.com%3A80&amp;tr=udp%3A%2F%2Fopen.demonii.com%3A1337&amp;tr=udp%3A%2F%2Ftracker.coppersurfer.tk%3A6969&amp;tr=udp%3A%2F%2Fexodus.desync.com%3A6969","seeders":0,"leechers":1,"uploader":"xxxlavalxxx","files":-1,"time":1366799247,"description":"\n\n &lt;a href=&quot;\nhttp://www.imdb.com/title/tt1646212/&quot; rel=&quot;nofollow&quot; target=&quot;_NEW&quot;&gt;\nhttp://www.imdb.com/title/tt1646212/&lt;/a&gt;\n\n\nAfter a hunting accident leaves the town mayor dead, teenage brothers Nate and Skylar go on the run from the mayor's family, who have declared open season on them. \n\n\n\nDirectors:\n Abe Levy, Silver Tree \n\nWriters:\n Abe Levy, Silver Tree \n\nStars:\n Ted Levine, Spencer Treat Clark, Nick Eversman\n\nGenres:\n  Action |  Drama |  Thriller \n\nCountry:\n USA \n\nLanguage:\n English \n\n\n\n\nFormat                                   : AVI\nFormat/Info                              : Audio Video Interleave\nFile size                                : 697 MiB\nDuration                                 : 1h 29mn\nOverall bit rate mode                    : Variable\nOverall bit rate                         : 1 087 Kbps\nWriting application                      : VirtualDubMod 1.5.10.2 (build 2540/release)\nWriting library                          : VirtualDubMod build 2540/release\n\nVideo\nID                                       : 0\nFormat                                   : MPEG-4 Visual\nFormat profile                           : Advanced Simple@L5\nFormat settings, BVOP                    : 2\nFormat settings, QPel                    : No\nFormat settings, GMC                     : No warppoints\nFormat settings, Matrix                  : Default (H.263)\nMuxing mode                              : Packed bitstream\nCodec ID                                 : XVID\nCodec ID/Hint                            : XviD\nDuration                                 : 1h 29mn\nBit rate                                 : 877 Kbps\nWidth                                    : 640 pixels\nHeight                                   : 272 pixels\nDisplay aspect ratio                     : 2.35:1\nFrame rate                               : 23.976 fps\nColor space                              : YUV\nChroma subsampling                       : 4:2:0\nBit depth                                : 8 bits\nScan type                                : Progressive\nCompression mode                         : Lossy\nBits/(Pixel*Frame)                       : 0.210\nStream size                              : 562 MiB (81%)\nWriting library                          : XviD 64\n\nAudio\nID                                       : 1\nFormat                                   : MPEG Audio\nFormat version                           : Version 1\nFormat profile                           : Layer 3\nMode                                     : Joint stereo\nCodec ID                                 : 55\nCodec ID/Hint                            : MP3\nDuration                                 : 1h 29mn\nBit rate mode                            : Variable\nBit rate                                 : 192 Kbps\nChannel(s)                               : 2 channels\nSampling rate                            : 48.0 KHz\nCompression mode                         : Lossy\nStream size                              : 127 MiB (18%)\nAlignment                                : Aligned on interleaves\nInterleave, duration                     : 24 ms (0.58 video frame)\nInterleave, preload duration             : 93 ms\nWriting library                          : LAME3.90.\nEncoding settings                        : -m j -V 4 -q 2 -lowpass 19.6 --abr 192\n\n\n\n\n    &lt;a href=&quot;\thttp://www.shotpix.com/images/07992064253507849646.png&quot; rel=&quot;nofollow&quot; target=&quot;_NEW&quot;&gt;\thttp://www.shotpix.com/images/07992064253507849646.png&lt;/a&gt;\n    &lt;a href=&quot;\thttp://www.shotpix.com/images/15796709297321882578.png&quot; rel=&quot;nofollow&quot; target=&quot;_NEW&quot;&gt;\thttp://www.shotpix.com/images/15796709297321882578.png&lt;/a&gt;\n    &lt;a href=&quot;\thttp://www.shotpix.com/images/18248657562635443290.png&quot; rel=&quot;nofollow&quot; target=&quot;_NEW&quot;&gt;\thttp://www.shotpix.com/images/18248657562635443290.png&lt;/a&gt;\n    &lt;a href=&quot;\thttp://www.shotpix.com/images/81413264906309590472.png&quot; rel=&quot;nofollow&quot; target=&quot;_NEW&quot;&gt;\thttp://www.shotpix.com/images/81413264906309590472.png&lt;/a&gt;\n    ","torrent":{"xt":"urn:btih:7728ba525a6d4bcbe80072114a16a27660860360","amp;dn":"Deep.Dark.Canyon.2013.DVDRip.XviD-IGUANA","amp;tr":["udp%3A%2F%2Ftracker.openbittorrent.com%3A80","udp%3A%2F%2Fopen.demonii.com%3A1337","udp%3A%2F%2Ftracker.coppersurfer.tk%3A6969","udp%3A%2F%2Fexodus.desync.com%3A6969"],"infoHash":"7728ba525a6d4bcbe80072114a16a27660860360","infoHashBuffer":{"type":"Buffer","data":[119,40,186,82,90,109,75,203,232,0,114,17,74,22,162,118,96,134,3,96]},"announce":[],"urlList":[]}}